<?xml version="1.0" encoding="UTF-8" standalone="no"?>
<svg width="0749" height="0535" version="1.1" xmlns="http://www.w3.org/2000/svg">
	<g fill="rgb(000,000,000)">
		<path d="M 0000,0000 H 0749 V 0535 H 0000 Z "/>
	</g>
	<g fill="rgb(255,255,255)">
		<path d="M 0000,0393 H 0008 V 0388 H 0155 V 0393 H 0147 V 0405 H 0156 V 0438 H 0009 V 0405 H 0000 Z "/>
		<path d="M 0009,0485 H 0156 V 0501 H 0160 V 0517 H 0158 V 0525 H 0180 V 0529 H 0192 V 0535 H 0045 V 0529 H 0033 V 0525 H 0011 V 0517 H 0013 V 0501 H 0009 Z "/>
		<path d="M 0114,0194 H 0252 V 0097 H 0300 V 0088 H 0322 V 0080 H 0308 V 0073 H 0280 V 0067 H 0300 V 0010 H 0286 V 0000 H 0336 V 0010 H 0350 V 0067 H 0330 V 0073 H 0358 V 0080 H 0372 V 0088 H 0350 V 0097 H 0397 V 0088 H 0419 V 0080 H 0405 V 0073 H 0377 V 0067 H 0397 V 0010 H 0383 V 0000 H 0433 V 0010 H 0447 V 0048 H 0496 V 0067 H 0476 V 0073 H 0504 V 0080 H 0518 V 0088 H 0496 V 0097 H 0544 V 0243 H 0496 V 0292 H 0446 V 0242 H 0495 V 0098 H 0398 V 0195 H 0350 V 0292 H 0300 V 0195 H 0253 V 0292 H 0203 V 0208 H 0183 V 0204 H 0138 V 0201 H 0114 Z M 0301,0194 H 0349 V 0098 H 0301 Z "/>
		<path d="M 0181,0377 H 0191 V 0369 H 0203 V 0340 H 0301 V 0369 H 0289 V 0377 H 0279 V 0383 H 0300 V 0393 H 0292 V 0405 H 0301 V 0437 H 0350 V 0486 H 0300 V 0438 H 0252 V 0405 H 0243 V 0393 H 0251 V 0389 H 0202 V 0383 H 0181 Z "/>
		<path d="M 0327,0377 H 0337 V 0369 H 0349 V 0340 H 0447 V 0369 H 0435 V 0377 H 0425 V 0383 H 0446 V 0393 H 0438 V 0405 H 0447 V 0438 H 0397 V 0405 H 0388 V 0393 H 0396 V 0389 H 0348 V 0383 H 0327 Z "/>
		<path d="M 0486,0393 H 0494 V 0388 H 0640 V 0393 H 0632 V 0405 H 0641 V 0438 H 0495 V 0405 H 0486 Z "/>
		<path d="M 0495,0485 H 0641 V 0501 H 0645 V 0507 H 0749 V 0512 H 0657 V 0514 H 0649 V 0519 H 0643 V 0525 H 0665 V 0529 H 0677 V 0535 H 0531 V 0529 H 0519 V 0525 H 0497 V 0517 H 0499 V 0501 H 0495 Z "/>
	</g>
</svg>