<?xml version="1.0" encoding="UTF-8" standalone="no"?>
<!-- Created with Inkscape (http://www.inkscape.org/) -->

<svg
   xmlns:dc="http://purl.org/dc/elements/1.1/"
   xmlns:cc="http://creativecommons.org/ns#"
   xmlns:rdf="http://www.w3.org/1999/02/22-rdf-syntax-ns#"
   xmlns:svg="http://www.w3.org/2000/svg"
   xmlns="http://www.w3.org/2000/svg"
   xmlns:sodipodi="http://sodipodi.sourceforge.net/DTD/sodipodi-0.dtd"
   xmlns:inkscape="http://www.inkscape.org/namespaces/inkscape"
   width="210mm"
   height="297mm"
   viewBox="0 0 744.09448819 1052.3622047"
   id="svg11757"
   version="1.1"
   inkscape:version="0.91 r13725"
   sodipodi:docname="logo_variant.svg">
  <defs
     id="defs11759" />
  <sodipodi:namedview
     id="base"
     pagecolor="#ffffff"
     bordercolor="#666666"
     borderopacity="1.0"
     inkscape:pageopacity="0.0"
     inkscape:pageshadow="2"
     inkscape:zoom="0.98994949"
     inkscape:cx="317.98657"
     inkscape:cy="488.55134"
     inkscape:document-units="px"
     inkscape:current-layer="layer1"
     showgrid="false"
     inkscape:window-width="1598"
     inkscape:window-height="864"
     inkscape:window-x="1080"
     inkscape:window-y="1038"
     inkscape:window-maximized="0" />
  <metadata
     id="metadata11762">
    <rdf:RDF>
      <cc:Work
         rdf:about="">
        <dc:format>image/svg+xml</dc:format>
        <dc:type
           rdf:resource="http://purl.org/dc/dcmitype/StillImage" />
        <dc:title></dc:title>
      </cc:Work>
    </rdf:RDF>
  </metadata>
  <g
     inkscape:label="Layer 1"
     inkscape:groupmode="layer"
     id="layer1">
    <g
       id="g5083"
       transform="matrix(1.7414019,0,0,1.7414018,-167.28713,-890.20574)">
      <text
         sodipodi:linespacing="100%"
         id="text3918"
         y="820.81238"
         x="327.78802"
         style="font-style:normal;font-variant:normal;font-weight:normal;font-stretch:normal;font-size:41.24921036px;line-height:100%;font-family:BigNoodleTitling;-inkscape-font-specification:BigNoodleTitling;text-align:end;letter-spacing:1.03123021px;word-spacing:0px;text-anchor:end;display:inline;fill:#000000;fill-opacity:1;stroke:none"
         xml:space="preserve"><tspan
           dx="0"
           y="820.81238"
           x="328.81924"
           id="tspan3920"
           sodipodi:role="line">Hackspace</tspan><tspan
           id="tspan3922"
           y="862.06158"
           x="328.81924"
           sodipodi:role="line">Siegen</tspan></text>
      <path
         inkscape:connector-curvature="0"
         id="path3088"
         d="m 361.26972,764.64165 -24.84375,24.8438 0,0.4687 25.3125,-25.3125 -0.46875,0 z m 3.4375,0 -28.28125,28.2812 0,0.4688 28.75,-28.75 -0.46875,0 z m 3.40625,0 -31.6875,31.75 0,0.4688 32.15625,-32.2188 -0.46875,0 z m 3.46875,0 -35.15625,35.1562 0,0.5 35.625,-35.6562 -0.46875,0 z m 3.4375,0 -38.59375,38.5938 0,0.5 39.09375,-39.0938 -0.5,0 z m 3.4375,0 -42.03125,42.09381 0,0.4687 42.5625,-42.56251 -0.53125,0 z m 3.46875,0 -45.5,45.50001 0,0.5 45.96875,-46.00001 -0.46875,0 z m 3.4375,0 -48.9375,48.93751 0,0.5 49.4375,-49.43751 -0.5,0 z m 3.4375,0 -11.5625,11.5625 0.53125,0 11.5625,-11.5625 -0.53125,0 z m 3.46875,0 -11.5625,11.5625 0.46875,0 11.5625,-11.5625 -0.46875,0 z m 3.4375,0 -11.5625,11.5625 0.46875,0 11.5625,-11.5625 -0.46875,0 z m 3.46875,0 -11.5625,11.5625 0.46875,0 11.5625,-11.5625 -0.46875,0 z m 3.40625,0 -11.5625,11.5625 0.5,0 11.5625,-11.5625 -0.5,0 z m 3.4375,0 -11.5625,11.5625 0.46875,0 11.5625,-11.5625 -0.46875,0 z m 3.46875,0 -11.5625,11.5625 0.46875,0 11.5625,-11.5625 -0.46875,0 z m 3.4375,0 -13.25,13.25 0,0.4688 13.71875,-13.7188 -0.46875,0 z m 3.40625,0 -16.4375,16.4375 0.53125,0 16.4375,-16.4375 -0.53125,0 z m 3.46875,0 -16.4375,16.4375 0.5,0 16.4375,-16.4375 -0.5,0 z m 3.46875,0 -18.71875,18.7188 0,0.4687 19.1875,-19.1875 -0.46875,0 z m 3.4375,0 -21.3125,21.3125 0.53125,0 21.3125,-21.3125 -0.53125,0 z m 3.4375,0 -21.3125,21.3125 0.46875,0 21.3125,-21.3125 -0.46875,0 z m 3.46875,0 -24.1875,24.1875 0,0.4687 24.4375,-24.4374 0,-0.2188 -0.25,0 z m 0.25,3.2188 -24.4375,24.4062 0,0.5 24.4375,-24.4375 0,-0.4687 z m 0,3.4062 -24.4375,24.4375 0,0.5 24.4375,-24.4375 0,-0.5 z m 0,3.4375 -24.4375,24.4375 0,0.5 24.4375,-24.4375 0,-0.5 z m -58.53125,3.4063 -38.90625,38.93741 0,0.5 38.90625,-38.90621 0,-0.5312 z m 58.53125,0.062 -24.4375,24.4376 0,0.4687 24.4375,-24.4375 0,-0.4688 z m -53.65625,2.9063 0,9.7187 4.875,0 0,-9.7187 -4.875,0 z m 4.875,9.7187 0,9.75 4.875,0 0,-9.75 -4.875,0 z m 4.875,0 4.84375,0 4.875,0 0,-4.8437 -4.875,0 0,-4.875 -4.84375,0 0,9.7187 z m 9.71875,0 0,14.625 4.875,0 0,-14.625 -4.875,0 z m 0,14.625 -4.875,0 0,4.87501 4.875,0 0,-4.87501 z m -14.59375,-4.8746 -4.875,0 0,9.75001 4.875,0 0,-9.75001 z m -4.875,0 0,-9.75 -4.875,0 0,9.75 4.875,0 z m -4.875,0 -4.875,0 0,9.75001 4.875,0 0,-9.75001 z m 0,-18.9687 -4.375,4.375 0.46875,0 3.90625,-3.9063 0,-0.4687 z m 58.53125,0.031 -24.4375,24.4374 0,0.4688 24.4375,-24.4375 0,-0.4687 z m -58.53125,3.4062 -0.9375,0.9375 0.46875,0 0.46875,-0.4687 0,-0.4688 z m 58.53125,0.031 -24.4375,24.43761 0,0.4687 24.4375,-24.43751 0,-0.4688 z m -63.40625,1.4063 -34.03125,34.03131 0,0.5 34.03125,-34.06261 0,-0.4687 z m 63.40625,2.0313 -26.65625,26.65621 0.5,0 26.15625,-26.15621 0,-0.5 z m -63.40625,1.4062 -34.03125,34.03121 0,0.5 34.03125,-34.06241 0,-0.4688 z m 63.40625,2.0312 -23.21875,23.21881 0.5,0 22.71875,-22.71881 0,-0.5 z m -63.40625,1.4376 -2.3125,2.3124 0.46875,0 1.84375,-1.8437 0,-0.4687 z m 63.40625,2.0312 -19.75,19.75001 0.46875,0 19.28125,-19.25001 0,-0.5 z m -68.25,2.8125 -16.9375,16.93751 0.46875,0 16.46875,-16.46881 0,-0.4687 z m 68.25,0.625 -16.3125,16.31251 0.5,0 15.8125,-15.81251 0,-0.5 z m -68.25,2.8125 -13.5,13.50001 0.46875,0 13.03125,-13.03121 0,-0.4688 z m 68.25,0.625 -14.71875,14.71881 0,0.4687 14.71875,-14.71871 0,-0.4688 z m -68.25,2.8125 -10.0625,10.06251 0.46875,0 9.59375,-9.59381 0,-0.4687 z m 68.25,0.6875 -14.71875,14.68751 0,0.4687 14.71875,-14.68741 0,-0.4688 z m -68.25,2.75001 -6.625,6.625 0.46875,0 6.15625,-6.1562 0,-0.4688 z m 68.25,0.625 -14.71875,14.7188 0,0.5 14.71875,-14.7188 0,-0.5 z m -28.6875,1.1562 -0.625,0.625 0,0.4688 1.09375,-1.0938 -0.46875,0 z m 3.4375,0 -4.0625,4.0626 0,0.4687 4.53125,-4.5313 -0.46875,0 z m -43,1.6563 -3.1875,3.1875 0.5,0 2.6875,-2.6875 0,-0.5 z m 68.25,0.6563 -14.71875,14.7187 0,0.5 14.71875,-14.7187 0,-0.5 z m -63.40625,2.5312 0,4.875 4.875,0 0,4.875 4.875,0 0,-9.75 -9.75,0 z m 9.75,9.75 0,4.875 4.875,0 0,-4.875 -4.875,0 z m 4.875,-9.75 0,4.875 4.875,0 0,4.875 4.84375,0 0,-9.75 -9.71875,0 z m 48.78125,0.9375 -14.71875,14.7187 0,0.4688 14.71875,-14.7188 0,-0.4687 z m -87.75,1.625 -9.6875,9.6875 0,0.4688 9.6875,-9.6876 0,-0.4687 z m 87.75,1.7813 -14.71875,14.7187 0,0.4687 14.71875,-14.7187 0,-0.4687 z m -82.875,0.5312 0,4.875 14.625,0 0,-4.875 -14.625,0 z m 48.6875,0 0,4.875 14.625,0 0,-4.875 -14.625,0 z m -53.5625,1.125 -9.6875,9.6875 0,0.4687 9.6875,-9.6874 0,-0.4688 z m 87.75,1.8125 -14.71875,14.7187 0,0.4688 14.71875,-14.7188 0,-0.4687 z m -87.75,1.625 -9.6875,9.6875 0,0.5 9.6875,-9.6875 0,-0.5 z m 87.75,1.8125 -35.6875,35.6875 0.5,0 35.1875,-35.2187 0,-0.4688 z m -87.75,1.625 -9.6875,9.6875 0,0.4687 9.6875,-9.6874 0,-0.4688 z m 4.875,1.75 0,4.875 14.625,0 0,-4.875 -14.625,0 z m 48.6875,0 0,4.875 14.625,0 0,-4.875 -14.625,0 z m 34.1875,0.062 -32.28125,32.25 0.46875,0 31.8125,-31.7813 0,-0.4687 z m -87.75,1.625 -9.6875,9.6875 0,0.5 9.6875,-9.6875 0,-0.5 z m 87.75,1.8125 -28.8125,28.8125 0.46875,0 28.34375,-28.3437 0,-0.4688 z m -87.75,1.6562 -9.6875,9.6876 0,0.5 9.6875,-9.6876 0,-0.5 z m 87.75,1.7813 -25.375,25.375 0.5,0 24.875,-24.875 0,-0.5 z m -87.75,1.6563 -9.6875,9.6874 0,0.4688 9.6875,-9.6875 0,-0.4687 z m 2.28125,1.1562 -11.96875,11.9688 0,0.5 12.46875,-12.4688 -0.5,0 z m 3.46875,0 -15.4375,15.4375 0,0.4687 15.90625,-15.9062 -0.46875,0 z m 3.40625,0 -18.84375,18.8438 0,0.5 19.34375,-19.3438 -0.5,0 z m 3.46875,0 -22.3125,22.3125 0,0.25 0.1875,0 22.5625,-22.5625 -0.4375,0 z m 3.40625,0 -22.59375,22.5625 0.5625,0 22.5625,-22.5625 -0.53125,0 z m 3.4375,0 -22.5625,22.5625 0.5,0 22.5625,-22.5625 -0.5,0 z m 3.46875,0 -22.5625,22.5625 0.46875,0 22.5625,-22.5625 -0.46875,0 z m 3.4375,0 -22.5625,22.5625 0.5,0 22.5625,-22.5625 -0.5,0 z m 3.4375,0 -22.5625,22.5625 0.46875,0 22.5625,-22.5625 -0.46875,0 z m 3.4375,0 -22.5625,22.5625 0.5,0 22.5625,-22.5625 -0.5,0 z m 3.46875,0 -22.5625,22.5625 0.5,0 22.5625,-22.5625 -0.5,0 z m 3.4375,0 -22.5625,22.5625 0.5,0 22.5625,-22.5625 -0.5,0 z m 3.4375,0 -22.5625,22.5625 0.46875,0 22.59375,-22.5625 -0.5,0 z m 3.46875,0 -22.5625,22.5625 0.46875,0 22.5625,-22.5625 -0.46875,0 z m 3.4375,0 -22.5625,22.5625 0.46875,0 22.5625,-22.5625 -0.46875,0 z m 3.4375,0 -22.59375,22.5625 0.5,0 22.59375,-22.5625 -0.5,0 z m 3.4375,0 -22.5625,22.5625 0.5,0 22.5625,-22.5625 -0.5,0 z m 3.4375,0 -22.5625,22.5625 0.5,0 22.5625,-22.5625 -0.5,0 z m 3.46875,0 -22.5625,22.5625 0.5,0 22.5625,-22.5625 -0.5,0 z m 3.4375,0 -22.5625,22.5625 0.46875,0 22.5625,-22.5625 -0.46875,0 z m 3.46875,0 -22.59375,22.5625 0.46875,0 22.59375,-22.5625 -0.46875,0 z"
         style="color:#000000;font-style:normal;font-variant:normal;font-weight:normal;font-stretch:normal;font-size:medium;line-height:normal;font-family:Sans;-inkscape-font-specification:Sans;text-indent:0;text-align:start;text-decoration:none;text-decoration-line:none;letter-spacing:normal;word-spacing:normal;text-transform:none;direction:ltr;block-progression:tb;writing-mode:lr-tb;baseline-shift:baseline;text-anchor:start;display:inline;overflow:visible;visibility:visible;fill:#000000;fill-opacity:1;stroke:none;stroke-width:0.28712499;stroke-miterlimit:4;stroke-dasharray:none;stroke-opacity:1;marker:none;enable-background:accumulate" />
    </g>
  </g>
</svg>
