<?xml version="1.0" encoding="UTF-8" standalone="no"?>
<svg
   xmlns:dc="http://purl.org/dc/elements/1.1/"
   xmlns:cc="http://creativecommons.org/ns#"
   xmlns:rdf="http://www.w3.org/1999/02/22-rdf-syntax-ns#"
   xmlns:svg="http://www.w3.org/2000/svg"
   xmlns="http://www.w3.org/2000/svg"
   id="svg31"
   version="1.1"
   viewBox="0 0 210 297"
   height="297mm"
   width="210mm">
  <defs
     id="defs25" />
  <metadata
     id="metadata28">
    <rdf:RDF>
      <cc:Work
         rdf:about="">
        <dc:format>image/svg+xml</dc:format>
        <dc:type
           rdf:resource="http://purl.org/dc/dcmitype/StillImage" />
        <dc:title></dc:title>
      </cc:Work>
    </rdf:RDF>
  </metadata>
  <g
     id="layer1">
    <path
       id="path3088"
       d="M 12.20977,249.11338 0,261.32317 v 0.23035 l 12.44015,-12.44014 z m 1.68941,0 L 0,263.01253 v 0.23039 l 14.12955,-14.12954 z m 1.67404,0 L 0,264.71731 v 0.2304 l 15.80359,-15.83433 z m 1.70476,0 L 0,266.39133 v 0.24573 l 17.50835,-17.52368 z m 1.6894,0 L 0,268.08078 v 0.24573 l 19.21311,-19.21313 z m 1.6894,0 L 0,269.8009 v 0.23035 l 20.91787,-20.91787 z m 1.70476,0 L 0,271.47492 v 0.24573 l 22.59191,-22.60727 z m 1.6894,0 L 0,273.16432 v 0.24573 l 24.29667,-24.29667 z m 1.68941,0 -5.68254,5.68253 h 0.26109 l 5.68253,-5.68253 z m 1.70476,0 -5.68254,5.68253 h 0.23038 l 5.68253,-5.68253 z m 1.6894,0 -5.68254,5.68253 h 0.23038 l 5.68253,-5.68253 z m 1.70476,0 -5.68254,5.68253 h 0.23038 l 5.68253,-5.68253 z m 1.67404,0 -5.68253,5.68253 h 0.24573 l 5.68253,-5.68253 z m 1.6894,0 -5.68253,5.68253 h 0.23037 l 5.68253,-5.68253 z m 1.70476,0 -5.68253,5.68253 h 0.23037 l 5.68253,-5.68253 z m 1.6894,0 -6.51187,6.51188 v 0.2304 l 6.74225,-6.74228 z m 1.67405,0 -8.07841,8.07841 h 0.26108 l 8.07842,-8.07841 z m 1.70476,0 -8.07842,8.07841 H 33.143 l 8.07841,-8.07841 z m 1.70476,0 -9.19956,9.19959 v 0.23034 l 9.42993,-9.42993 z m 1.6894,0 -10.47429,10.47429 h 0.26109 l 10.47429,-10.47429 z m 1.6894,0 -10.47429,10.47429 h 0.23037 l 10.47429,-10.47429 z m 1.70476,0 -11.88724,11.88725 v 0.23035 l 12.01011,-12.01007 v -0.10753 z m 0.12287,1.58192 -12.01011,11.99473 v 0.24573 l 12.01011,-12.01011 z m 0,1.67402 -12.01011,12.01011 v 0.24573 l 12.01011,-12.01011 z m 0,1.6894 -12.01011,12.01011 v 0.24573 L 47.88687,254.30445 Z M 19.12096,255.73279 0,274.86906 v 0.24573 l 19.12096,-19.12094 z m 28.76591,0.0305 -12.01011,12.01016 v 0.23035 l 12.01011,-12.01011 z m -26.37003,1.42834 v 4.77637 h 2.39588 v -4.77637 z m 2.39588,4.77637 v 4.79176 h 2.39588 v -4.79176 z m 2.39588,0 h 2.38052 2.39588 v -2.3805 H 28.68912 V 257.1916 H 26.3086 Z m 4.7764,0 v 7.18764 h 2.39588 v -7.18764 z m 0,7.18764 h -2.39588 v 2.39588 H 31.085 Z m -7.17228,-2.39568 h -2.39588 v 4.79176 h 2.39588 z m -2.39588,0 v -4.79176 h -2.39588 v 4.79176 z m -2.39588,0 h -2.39588 v 4.79176 h 2.39588 z m 0,-9.32241 -2.15015,2.15015 h 0.23038 l 1.91977,-1.9198 z m 28.76591,0.0152 -12.01011,12.01006 v 0.2304 l 12.01011,-12.01011 z m -28.76591,1.67402 -0.46074,0.46075 h 0.23037 l 0.23037,-0.23035 z m 28.76591,0.0152 -12.01011,12.01017 v 0.23034 L 47.88687,259.37242 Z M 16.72508,259.83316 0,276.55827 v 0.24573 l 16.72508,-16.74049 z m 31.16179,0.99831 -13.10055,13.10052 h 0.24573 L 47.88687,261.0772 Z M 16.72508,261.52257 0,278.24762 v 0.24573 l 16.72508,-16.74039 z m 31.16179,0.99826 -11.41114,11.41116 h 0.24573 l 11.16541,-11.16543 z m -31.16179,0.70652 -1.13651,1.13646 h 0.23038 l 0.90613,-0.90611 z m 31.16179,0.99826 -9.70638,9.70638 h 0.23037 l 9.47601,-9.46065 z m -33.54231,1.38224 -8.32414,8.32414 h 0.23037 l 8.09377,-8.09379 z m 33.54231,0.30716 -8.01698,8.01698 h 0.24573 l 7.77125,-7.77125 z m -33.54231,1.38224 -6.63474,6.63474 h 0.23037 l 6.40437,-6.40434 z m 33.54231,0.30716 -7.23372,7.23374 v 0.23035 l 7.23372,-7.23369 z m -33.54231,1.38223 -4.94534,4.94535 H 9.6296 l 4.71496,-4.715 z m 33.54231,0.33788 -7.23372,7.21836 v 0.23035 l 7.23372,-7.21831 z m -33.54231,1.35153 -3.25594,3.25594 H 11.319 l 3.02556,-3.02554 z m 33.54231,0.30716 -7.23372,7.23374 v 0.24573 l 7.23372,-7.23374 z m -14.09883,0.56823 -0.30716,0.30717 v 0.23039 l 0.53753,-0.53756 z m 1.6894,0 -1.99656,1.99662 v 0.23035 l 2.22694,-2.22697 z m -21.13288,0.81401 -1.56653,1.56654 h 0.24573 l 1.3208,-1.32081 z m 33.54231,0.32255 -7.23372,7.23368 v 0.24573 l 7.23372,-7.23368 z m -31.16179,1.24399 v 2.39588 h 2.39588 v 2.39587 h 2.39588 v -4.79175 z m 4.79176,4.79175 v 2.39588 h 2.39588 v -2.39588 z m 2.39588,-4.79175 v 2.39588 h 2.39588 v 2.39587 h 2.38052 v -4.79175 z m 23.97415,0.46074 -7.23372,7.23369 v 0.2304 l 7.23372,-7.23374 z M 4.76105,275.19136 0,279.9524 v 0.2304 l 4.76105,-4.76109 z m 43.12582,0.87544 -7.23372,7.23369 v 0.23034 l 7.23372,-7.23368 z m -40.72994,0.26107 v 2.39587 h 7.18763 v -2.39587 z m 23.92807,0 v 2.39587 h 7.18763 v -2.39587 z M 4.76105,276.88076 0,281.6418 v 0.23035 l 4.76105,-4.76099 z m 43.12582,0.89078 -7.23372,7.23368 v 0.2304 l 7.23372,-7.23374 z M 4.76105,278.57016 0,283.3312 v 0.24573 l 4.76105,-4.76104 z M 47.88687,279.46094 30.3478,297 h 0.24573 L 47.88687,279.69133 Z M 4.76105,280.25956 0,285.0206 v 0.23035 l 4.76105,-4.76099 z m 2.39588,0.86006 v 2.39588 h 7.18763 v -2.39588 z m 23.92807,0 v 2.39588 h 7.18763 v -2.39588 z m 16.80187,0.0305 -15.86502,15.84966 h 0.23037 L 47.88687,281.38044 Z M 4.76105,281.94872 0,286.70976 v 0.24573 l 4.76105,-4.76104 z m 43.12582,0.89077 -14.16026,14.16026 h 0.23037 L 47.88687,283.06989 Z M 4.76105,283.65346 0,288.41454 v 0.24573 l 4.76105,-4.76108 z m 43.12582,0.87544 -12.47086,12.47085 h 0.24573 L 47.88687,284.77463 Z M 4.76105,285.34291 0,290.1039 v 0.2304 l 4.76105,-4.76105 z M 5.8822,285.91114 0,291.79335 v 0.24573 l 6.12793,-6.12794 z m 1.70476,0 L 0,293.49808 v 0.23035 l 7.81733,-7.81729 z m 1.67404,0 L 0,295.17215 v 0.24573 l 9.50673,-9.50674 z m 1.70476,0 L 0,296.87689 v 0.12286 h 0.0922 l 11.08861,-11.08861 z m 1.67404,0 -11.10398,11.08861 h 0.27645 l 11.08862,-11.08861 z m 1.6894,0 -11.08862,11.08861 h 0.24574 l 11.08861,-11.08861 z m 1.70476,0 -11.08861,11.08861 h 0.23037 l 11.08862,-11.08861 z m 1.68941,0 -11.08862,11.08861 H 6.88048 L 17.9691,285.91114 Z m 1.6894,0 -11.08862,11.08861 h 0.23037 l 11.08862,-11.08861 z m 1.6894,0 -11.08862,11.08861 h 0.24573 L 21.3479,285.91114 Z m 1.70476,0 -11.08862,11.08861 h 0.24573 l 11.08862,-11.08861 z m 1.6894,0 -11.08862,11.08861 h 0.24573 l 11.08862,-11.08861 z m 1.6894,0 -11.08862,11.08861 h 0.23038 l 11.10397,-11.08861 z m 1.70476,0 -11.08862,11.08861 h 0.23038 l 11.08862,-11.08861 z m 1.6894,0 -11.08861,11.08861 h 0.23037 l 11.08862,-11.08861 z m 1.68941,0 -11.10398,11.08861 h 0.24573 l 11.10398,-11.08861 z m 1.6894,0 -11.08862,11.08861 h 0.24573 l 11.08862,-11.08861 z m 1.6894,0 -11.08862,11.08861 h 0.24573 l 11.08862,-11.08861 z m 1.70476,0 -11.08862,11.08861 h 0.24573 l 11.08862,-11.08861 z m 1.6894,0 -11.08862,11.08861 h 0.23038 l 11.08861,-11.08861 z m 1.70476,0 -11.10398,11.08861 h 0.23037 l 11.10398,-11.08861 z"
       style="color:#000000;font-style:normal;font-variant:normal;font-weight:normal;font-stretch:normal;font-size:medium;line-height:normal;font-family:Sans;-inkscape-font-specification:Sans;text-indent:0;text-align:start;text-decoration:none;text-decoration-line:none;letter-spacing:normal;word-spacing:normal;text-transform:none;writing-mode:lr-tb;direction:ltr;baseline-shift:baseline;text-anchor:start;display:inline;overflow:visible;visibility:visible;fill:#000000;fill-opacity:1;stroke:none;stroke-width:0.14111112;stroke-miterlimit:4;stroke-dasharray:none;stroke-opacity:1;marker:none;enable-background:accumulate" />
  </g>
</svg>
