<?xml version="1.0" encoding="UTF-8" standalone="no"?>
<svg width="0208" height="0288" version="1.1" xmlns="http://www.w3.org/2000/svg">
	<g fill="rgb(255,255,255)">
		<path d="M 0000,0000 H 0208 V 0288 H 0000 Z "/>
	</g>
	<g fill="rgb(000,000,000)">
		<path d="M 0000,0128 H 0048 V 0144 H 0000 Z "/>
		<path d="M 0000,0160 H 0048 V 0176 H 0000 Z "/>
		<path d="M 0016,0208 H 0032 V 0240 H 0016 Z "/>
		<path d="M 0016,0256 H 0032 V 0288 H 0016 Z "/>
		<path d="M 0048,0208 H 0064 V 0288 H 0048 Z "/>
		<path d="M 0064,0064 H 0080 V 0096 H 0064 Z "/>
		<path d="M 0064,0112 H 0096 V 0144 H 0080 V 0128 H 0064 Z "/>
		<path d="M 0080,0032 H 0096 V 0064 H 0080 Z "/>
		<path d="M 0080,0224 H 0096 V 0240 H 0080 Z "/>
		<path d="M 0080,0256 H 0096 V 0288 H 0080 Z "/>
		<path d="M 0096,0000 H 0112 V 0032 H 0096 Z "/>
		<path d="M 0096,0064 H 0112 V 0096 H 0096 Z "/>
		<path d="M 0096,0144 H 0112 V 0160 H 0096 Z "/>
		<path d="M 0112,0032 H 0128 V 0064 H 0112 Z "/>
		<path d="M 0112,0112 H 0144 V 0144 H 0128 V 0128 H 0112 Z "/>
		<path d="M 0112,0208 H 0128 V 0256 H 0160 V 0272 H 0128 V 0288 H 0112 Z "/>
		<path d="M 0128,0000 H 0144 V 0016 H 0160 V 0032 H 0128 Z "/>
		<path d="M 0144,0080 H 0160 V 0096 H 0144 Z "/>
		<path d="M 0144,0224 H 0176 V 0208 H 0192 V 0288 H 0176 V 0240 H 0144 Z "/>
		<path d="M 0160,0032 H 0176 V 0080 H 0160 Z "/>
		<path d="M 0160,0128 H 0208 V 0144 H 0160 Z "/>
		<path d="M 0160,0160 H 0208 V 0176 H 0160 Z "/>
	</g>
</svg>