<?xml version="1.0" encoding="UTF-8" standalone="no"?>
<svg width="0271" height="0298" version="1.1" xmlns="http://www.w3.org/2000/svg">
	<g fill="rgb(255,255,255)">
		<path d="M 0000,0000 H 0271 V 0298 H 0000 Z "/>
	</g>
	<g fill="rgb(000,000,000)">
		<path d="M 0031,0147 H 0079 V 0163 H 0031 Z "/>
		<path d="M 0031,0179 H 0079 V 0195 H 0031 Z "/>
		<path d="M 0095,0083 H 0111 V 0115 H 0095 Z "/>
		<path d="M 0095,0131 H 0127 V 0163 H 0111 V 0147 H 0095 Z "/>
		<path d="M 0111,0051 H 0127 V 0083 H 0111 Z "/>
		<path d="M 0127,0019 H 0143 V 0051 H 0127 Z "/>
		<path d="M 0127,0083 H 0143 V 0115 H 0127 Z "/>
		<path d="M 0127,0163 H 0143 V 0179 H 0127 Z "/>
		<path d="M 0143,0051 H 0159 V 0083 H 0143 Z "/>
		<path d="M 0143,0131 H 0175 V 0163 H 0159 V 0147 H 0143 Z "/>
		<path d="M 0159,0019 H 0175 V 0035 H 0191 V 0051 H 0159 Z "/>
		<path d="M 0175,0099 H 0191 V 0115 H 0175 Z "/>
		<path d="M 0191,0051 H 0207 V 0099 H 0191 Z "/>
		<path d="M 0191,0147 H 0239 V 0163 H 0191 Z "/>
		<path d="M 0191,0179 H 0239 V 0195 H 0191 Z "/>
	</g>
</svg>