<?xml version="1.0" encoding="UTF-8" standalone="no"?>
<!-- Created with Inkscape (http://www.inkscape.org/) -->

<svg
   xmlns:dc="http://purl.org/dc/elements/1.1/"
   xmlns:cc="http://creativecommons.org/ns#"
   xmlns:rdf="http://www.w3.org/1999/02/22-rdf-syntax-ns#"
   xmlns:svg="http://www.w3.org/2000/svg"
   xmlns="http://www.w3.org/2000/svg"
   xmlns:sodipodi="http://sodipodi.sourceforge.net/DTD/sodipodi-0.dtd"
   xmlns:inkscape="http://www.inkscape.org/namespaces/inkscape"
   width="744.09448819"
   height="1052.3622047"
   id="svg2"
   version="1.1"
   inkscape:version="0.91 r13725"
   sodipodi:docname="pixelhasi-text.svg">
  <defs
     id="defs4" />
  <sodipodi:namedview
     id="base"
     pagecolor="#ffffff"
     bordercolor="#666666"
     borderopacity="1.0"
     inkscape:pageopacity="0.0"
     inkscape:pageshadow="2"
     inkscape:zoom="0.49497475"
     inkscape:cx="-7.0407106"
     inkscape:cy="520.12509"
     inkscape:document-units="px"
     inkscape:current-layer="layer1"
     showgrid="false"
     inkscape:snap-bbox="true"
     inkscape:object-nodes="true"
     inkscape:window-width="1600"
     inkscape:window-height="900"
     inkscape:window-x="1080"
     inkscape:window-y="1020"
     inkscape:window-maximized="0">
    <inkscape:grid
       type="xygrid"
       id="grid3135" />
  </sodipodi:namedview>
  <metadata
     id="metadata7">
    <rdf:RDF>
      <cc:Work
         rdf:about="">
        <dc:format>image/svg+xml</dc:format>
        <dc:type
           rdf:resource="http://purl.org/dc/dcmitype/StillImage" />
        <dc:title />
      </cc:Work>
    </rdf:RDF>
  </metadata>
  <g
     inkscape:label="Layer 1"
     inkscape:groupmode="layer"
     id="layer1">
    <path
       id="path3000"
       style="fill:#000000;fill-opacity:1;fill-rule:nonzero;stroke:none"
       d="m 493.47582,331.89537 48.57143,0 0,48.57143 -48.57143,0 z m -194.28572,48.57143 -48.57143,0 0,-97.14286 48.57143,0 z m 97.14286,-194.28572 -48.57143,0 0,-97.142858 48.57143,0 z m -48.57143,97.14286 -48.57143,0 0,-97.14286 48.57143,0 z m 0,0 48.57143,0 0,97.14286 -48.57143,0 z m 48.57143,-97.14286 48.57143,0 0,97.14286 -48.57143,0 z m 145.71429,-48.57143 0,48.57143 -48.57143,0 -48.57143,0 0,-97.142858 48.57143,0 0,48.571428 z m 0,48.57143 48.57143,0 0,145.71429 -48.57143,0 z m 0,437.14287 0,-48.57143 145.71429,0 0,48.57143 z m 0,-97.14286 0,-48.57143 145.71429,0 0,48.57143 z m -48.57143,0 -48.57143,0 0,-48.57143 -48.57143,0 0,-48.57143 97.14286,0 z m -145.71429,0 48.57143,0 0,48.57143 -48.57143,0 z m 0,0 -48.57143,0 0,-48.57143 -48.57143,0 0,-48.57143 97.14286,0 z m -291.428581,97.14286 0,-48.57143 145.714291,0 0,48.57143 z m 145.714291,-145.71429 0,48.57143 -145.714296,0 0,-48.57143 z m -48.57143,485.7143 -48.57143,0 0,-97.14286 48.57143,0 z m 48.57143,-242.85715 48.57143,0 0,242.85715 -48.57143,0 z m -97.14286,0 48.57143,0 0,97.14286 -48.57143,0 z m 242.85715,242.85715 -48.57143,0 0,-97.14286 48.57143,0 z m -48.57143,-194.28572 48.57143,0 0,48.57143 -48.57143,0 z m 340.00001,194.28572 -48.57143,0 0,-145.71429 -97.14286,0 0,-48.57143 97.14286,0 0,-48.57143 48.57143,0 z m -97.14286,-97.14286 0,48.57143 -97.14286,0 0,48.57143 -48.57143,0 0,-242.85715 48.57143,0 0,145.71429 z"
       inkscape:connector-curvature="0" />
  </g>
</svg>
